# Blender v2.92.0 OBJ File: ''
# www.blender.org
mtllib squared_cube.mtl
o Cube
v 0.472432 0.777973 -3.824306
v 0.946276 -1.198059 -1.118814
v 1.042382 0.997361 1.048700
v 0.990557 -1.084522 1.021176
v -1.563207 -0.086470 -0.146657
v -1.100262 -1.750351 -0.676826
v -1.071945 0.344178 3.323908
v -1.018781 -1.090134 1.125518
vt 0.875000 0.500000
vt 0.625000 0.750000
vt 0.625000 0.500000
vt 0.375000 1.000000
vt 0.375000 0.750000
vt 0.375000 0.000000
vt 0.625000 0.250000
vt 0.375000 0.250000
vt 0.125000 0.500000
vt 0.125000 0.750000
vt 0.375000 0.500000
vt 0.875000 0.750000
vt 0.625000 1.000000
vt 0.625000 0.000000
vn -0.3854 0.9227 0.0035
vn 0.0519 -0.0145 0.9985
vn -0.9376 -0.3106 0.1562
vn 0.0204 -0.9391 0.3431
vn 0.9995 -0.0246 -0.0194
vn -0.2634 0.2256 -0.9379
vn -0.3577 0.9316 -0.0650
vn 0.6518 -0.6279 0.4254
vn -0.9403 -0.2950 0.1697
vn 0.2694 -0.9620 0.0455
vn 0.9901 0.0743 -0.1191
vn -0.5017 -0.7381 -0.4512
usemtl Material
s off
f 5/1/1 3/2/1 1/3/1
f 3/2/2 8/4/2 4/5/2
f 8/6/3 5/7/3 6/8/3
f 6/9/4 4/5/4 8/10/4
f 2/11/5 3/2/5 4/5/5
f 5/7/6 2/11/6 6/8/6
f 5/1/7 7/12/7 3/2/7
f 3/2/8 7/13/8 8/4/8
f 8/6/9 7/14/9 5/7/9
f 6/9/10 2/11/10 4/5/10
f 2/11/11 1/3/11 3/2/11
f 5/7/12 1/3/12 2/11/12
