# Blender v2.92.0 OBJ File: ''
# www.blender.org
mtllib tetra.mtl
o Cone
v 0.000000 0.000000 0.000000
v 0.866000 0.495551 0.000000
v 1.299000 0.000000 -0.749978
v 1.299000 -0.000000 0.749978
vt 0.250000 0.490000
vt 0.250000 0.250000
vt 0.457846 0.130000
vt 0.750000 0.490000
vt 0.957846 0.130000
vt 0.542154 0.130000
vt 0.042154 0.130000
vn -0.3765 0.6580 -0.6521
vn 0.0000 -1.0000 -0.0000
vn 0.7530 0.6580 0.0000
vn -0.3765 0.6580 0.6521
usemtl None
s 1
f 1/1/1 2/2/1 3/3/1
f 1/4/2 3/5/2 4/6/2
f 3/3/3 2/2/3 4/7/3
f 4/7/4 2/2/4 1/1/4
o Cone.001
v 0.000000 0.000000 0.000000
v -0.866000 0.495551 0.000000
v -1.299000 0.000000 0.749978
v -1.299000 -0.000000 -0.749978
vt 0.250000 0.490000
vt 0.250000 0.250000
vt 0.457846 0.130000
vt 0.750000 0.490000
vt 0.957846 0.130000
vt 0.542154 0.130000
vt 0.042154 0.130000
vn 0.3765 0.6580 0.6521
vn 0.0000 -1.0000 0.0000
vn -0.7530 0.6580 0.0000
vn 0.3765 0.6580 -0.6521
usemtl None
s 1
f 5/8/5 6/9/5 7/10/5
f 5/11/6 7/12/6 8/13/6
f 7/10/7 6/9/7 8/14/7
f 8/14/8 6/9/8 5/8/8
o Cone.002
v 0.000000 0.000000 0.000000
v 0.000000 0.495551 -0.866000
v -0.749978 0.000000 -1.299000
v 0.749978 -0.000000 -1.299000
vt 0.250000 0.490000
vt 0.250000 0.250000
vt 0.457846 0.130000
vt 0.750000 0.490000
vt 0.957846 0.130000
vt 0.542154 0.130000
vt 0.042154 0.130000
vn -0.6521 0.6580 0.3765
vn -0.0000 -1.0000 0.0000
vn 0.0000 0.6580 -0.7530
vn 0.6521 0.6580 0.3765
usemtl None
s 1
f 9/15/9 10/16/9 11/17/9
f 9/18/10 11/19/10 12/20/10
f 11/17/11 10/16/11 12/21/11
f 12/21/12 10/16/12 9/15/12
o Cone.003
v 0.000000 0.000000 0.000000
v 0.000000 0.495551 0.866000
v 0.749979 0.000000 1.299000
v -0.749977 -0.000000 1.299000
vt 0.250000 0.490000
vt 0.250000 0.250000
vt 0.457846 0.130000
vt 0.750000 0.490000
vt 0.957846 0.130000
vt 0.542154 0.130000
vt 0.042154 0.130000
vn 0.6521 0.6580 -0.3765
vn 0.0000 -1.0000 -0.0000
vn 0.0000 0.6580 0.7530
vn -0.6521 0.6580 -0.3765
usemtl None
s 1
f 13/22/13 14/23/13 15/24/13
f 13/25/14 15/26/14 16/27/14
f 15/24/15 14/23/15 16/28/15
f 16/28/16 14/23/16 13/22/16
o Cone.004
v 0.000000 0.000000 0.000000
v 0.866000 -0.457717 -0.000000
v 1.299000 -0.000000 0.749978
v 1.299000 0.000000 -0.749978
vt 0.250000 0.490000
vt 0.250000 0.250000
vt 0.457846 0.130000
vt 0.750000 0.490000
vt 0.957846 0.130000
vt 0.542154 0.130000
vt 0.042154 0.130000
vn -0.3632 -0.6872 0.6291
vn 0.0000 1.0000 0.0000
vn 0.7264 -0.6872 -0.0000
vn -0.3632 -0.6872 -0.6291
usemtl None
s 1
f 17/29/17 18/30/17 19/31/17
f 17/32/18 19/33/18 20/34/18
f 19/31/19 18/30/19 20/35/19
f 20/35/20 18/30/20 17/29/20
o Cone.005
v 0.000000 0.000000 0.000000
v -0.866000 -0.457717 -0.000000
v -1.299000 -0.000000 -0.749978
v -1.299000 0.000000 0.749978
vt 0.250000 0.490000
vt 0.250000 0.250000
vt 0.457846 0.130000
vt 0.750000 0.490000
vt 0.957846 0.130000
vt 0.542154 0.130000
vt 0.042154 0.130000
vn 0.3632 -0.6872 -0.6291
vn 0.0000 1.0000 -0.0000
vn -0.7264 -0.6872 -0.0000
vn 0.3632 -0.6872 0.6291
usemtl None
s 1
f 21/36/21 22/37/21 23/38/21
f 21/39/22 23/40/22 24/41/22
f 23/38/23 22/37/23 24/42/23
f 24/42/24 22/37/24 21/36/24
o Cone.006
v 0.000000 0.000000 0.000000
v 0.000000 -0.457718 0.866000
v -0.749978 -0.000001 1.299000
v 0.749978 -0.000000 1.299000
vt 0.250000 0.490000
vt 0.250000 0.250000
vt 0.457846 0.130000
vt 0.750000 0.490000
vt 0.957846 0.130000
vt 0.542154 0.130000
vt 0.042154 0.130000
vn -0.6291 -0.6872 -0.3632
vn -0.0000 1.0000 0.0000
vn 0.0000 -0.6872 0.7264
vn 0.6291 -0.6872 -0.3632
usemtl None
s 1
f 25/43/25 26/44/25 27/45/25
f 25/46/26 27/47/26 28/48/26
f 27/45/27 26/44/27 28/49/27
f 28/49/28 26/44/28 25/43/28
o Cone.007
v 0.000000 0.000000 0.000000
v 0.000000 -0.457717 -0.866000
v 0.749979 0.000000 -1.299000
v -0.749977 0.000001 -1.299000
vt 0.250000 0.490000
vt 0.250000 0.250000
vt 0.457846 0.130000
vt 0.750000 0.490000
vt 0.957846 0.130000
vt 0.542154 0.130000
vt 0.042154 0.130000
vn 0.6291 -0.6872 0.3632
vn 0.0000 1.0000 0.0000
vn 0.0000 -0.6872 -0.7264
vn -0.6291 -0.6872 0.3632
usemtl None
s 1
f 29/50/29 30/51/29 31/52/29
f 29/53/30 31/54/30 32/55/30
f 31/52/31 30/51/31 32/56/31
f 32/56/32 30/51/32 29/50/32
